<?xml version="1.0" encoding="utf-8"?>
<!-- Generator: Adobe Illustrator 19.1.0, SVG Export Plug-In . SVG Version: 6.00 Build 0)  -->
<svg version="1.1" id="Livello_1" xmlns="http://www.w3.org/2000/svg" xmlns:xlink="http://www.w3.org/1999/xlink" x="0px" y="0px"
	 viewBox="-429 196 300 295" style="enable-background:new -429 196 300 295;" xml:space="preserve">
<style type="text/css">
	.st0{fill:url(#SVGID_1_);}
	.st1{fill:url(#SVGID_2_);}
	.st2{fill:url(#SVGID_3_);}
</style>
<g>
	<linearGradient id="SVGID_1_" gradientUnits="userSpaceOnUse" x1="-356.0954" y1="180.594" x2="-241.0951" y2="423.5946">
		<stop  offset="0" style="stop-color:#A0CBFF"/>
		<stop  offset="0.3941" style="stop-color:#A0CBFE"/>
		<stop  offset="0.583" style="stop-color:#8EC2FC"/>
		<stop  offset="0.7838" style="stop-color:#83BCFB"/>
		<stop  offset="1" style="stop-color:#7FBAFB"/>
	</linearGradient>
	<path class="st0" d="M-429,196v295h300V196H-429z M-152.8,467.6h-252.3V219.5h252.3V467.6z"/>
	<g id="Layer_4">
		<g>
			
				<linearGradient id="SVGID_2_" gradientUnits="userSpaceOnUse" x1="-391.8079" y1="811.4955" x2="-276.8079" y2="1054.4955" gradientTransform="matrix(1 0 0 1 0 -618)">
				<stop  offset="0" style="stop-color:#A0CBFF"/>
				<stop  offset="0.3941" style="stop-color:#A0CBFE"/>
				<stop  offset="0.583" style="stop-color:#8EC2FC"/>
				<stop  offset="0.7838" style="stop-color:#83BCFB"/>
				<stop  offset="1" style="stop-color:#7FBAFB"/>
			</linearGradient>
			<path class="st1" d="M-356.5,279.1c0,0,19-0.5,34.6-0.5c15.8,0,27,3.7,34.6,10.2c7.2,6.2,12.1,16.7,12.1,28.6
				s-3.7,21.8-10.4,28.6c-8.7,8.9-18.9,14.1-36.3,14.9c-4.8,0.2-9.2,0.2-9.2,0.2V400h-25.4L-356.5,279.1L-356.5,279.1z
				 M-331.2,339.7c2.8,0.3,4.5,0.1,8.6,0.1c13.6-0.2,22-8.4,22-20.9c0-11.2-6.9-20.5-20-20.9c-5.2-0.2-10.6,0-10.6,0V339.7z"/>
			<g>
				
					<linearGradient id="SVGID_3_" gradientUnits="userSpaceOnUse" x1="-326.3655" y1="779.798" x2="-210.9114" y2="1023.7577" gradientTransform="matrix(1 0 0 1 0 -618)">
					<stop  offset="0" style="stop-color:#A0CBFF"/>
					<stop  offset="0.3941" style="stop-color:#A0CBFE"/>
					<stop  offset="0.583" style="stop-color:#8EC2FC"/>
					<stop  offset="0.7838" style="stop-color:#83BCFB"/>
					<stop  offset="1" style="stop-color:#7FBAFB"/>
				</linearGradient>
				<path class="st2" d="M-265.6,373.1c5.1,3.1,17.2,7.8,25.4,7.8c8.4,0,11.9-3,11.9-7.6c0-4.6-2.7-9.5-13.1-13
					c-18.4-6.3-25.6-13.8-25.4-24.3c0-17,14.2-29.7,36.3-29.7c10.4,0,18.7,3.4,24.2,6.2v20.4c-4-2.2-15.6-7.2-23.3-7.2
					c-6.8,0-10.6,2.8-10.6,7.4c0,4.2,3.5,6.5,14.4,10.3c17,5.9,24.1,14.6,24.3,27.9c0,16.8-13,30.2-38.7,29.4
					c-8.8-0.3-18.6-3.8-25.4-7.5L-265.6,373.1L-265.6,373.1z"/>
			</g>
		</g>
	</g>
</g>
</svg>
