<?xml version="1.0" encoding="utf-8"?>
<!-- Generator: Adobe Illustrator 18.1.1, SVG Export Plug-In . SVG Version: 6.00 Build 0)  -->
<svg version="1.1" id="Livello_1" xmlns="http://www.w3.org/2000/svg" xmlns:xlink="http://www.w3.org/1999/xlink" x="0px" y="0px"
	 viewBox="0 0 601.8 90.4" enable-background="new 0 0 601.8 90.4" xml:space="preserve">
<path fill="none" stroke="#FFFFFF" stroke-width="2.4498" d="M59.4,17.8c-1.3,7.5-8.4,12.5-15.9,11.1C36,27.6,31.1,20.5,32.4,13
	c1.3-7.5,8.4-12.4,15.9-11.1C55.8,3.2,60.7,10.3,59.4,17.8z"/>
<path fill="none" stroke="#FFFFFF" stroke-width="2.4498" d="M53.8,50.2c-1.3,7.5-8.4,12.4-15.9,11.1c-7.5-1.3-12.5-8.4-11.1-15.9
	C28.1,38,35.2,33,42.6,34.3C50.1,35.6,55.1,42.8,53.8,50.2z"/>
<path fill="none" stroke="#FFFFFF" stroke-width="2.4498" d="M28.5,29.1c-1.3,7.5-8.4,12.5-15.9,11.1C5.1,39,0.1,31.8,1.4,24.4
	c1.3-7.5,8.4-12.5,15.9-11.1C24.8,14.6,29.8,21.7,28.5,29.1z"/>
<path fill="#FFFFFF" d="M107.2,36.4c-4.1-2-8.3-3-12.5-3.1c-7,0.1-12.4,2.4-16.1,7c-3.9,4.7-5.9,10.8-5.9,18.3
	c0,7,1.9,12.9,5.8,17.7c3.7,5,8.9,7.5,15.5,7.6c4.5,0,8.9-0.9,13.2-2.7l0.7,7c-4.7,1.5-9.7,2.2-15,2.1c-9.4-0.2-16.4-3.4-21-9.6
	c-4.7-6.1-7-13.5-7-22.1c0.1-9.6,2.7-17.2,8-22.9C78,30,85,27,93.7,26.9c3.6,0,6.6,0.3,9,0.8c1.2,0.2,2.3,0.5,3.2,0.7
	c0.9,0.3,1.5,0.6,2,0.8L107.2,36.4z"/>
<path fill="#FFFFFF" d="M117.2,58.6c0-8.6,2.2-16,6.7-22.1c4.4-6.3,11.3-9.5,20.6-9.6c9.5,0.2,16.5,3.4,20.9,9.6
	c4.3,6.1,6.4,13.5,6.4,22.1c0,8.5-2.2,15.8-6.4,22c-4.5,6.3-11.4,9.5-20.9,9.7c-9.3-0.2-16.2-3.4-20.6-9.7
	C119.4,74.4,117.2,67.1,117.2,58.6z M125.1,58.6c0,7.2,1.7,13.1,5.1,17.8c3.2,4.9,8,7.4,14.4,7.5c6.4-0.1,11.3-2.6,14.6-7.5
	c3.2-4.7,4.8-10.6,4.8-17.8c0-7.2-1.6-13.3-4.8-18.1c-3.4-4.8-8.3-7.2-14.6-7.3c-6.4,0.1-11.2,2.5-14.4,7.3
	C126.8,45.4,125.1,51.4,125.1,58.6z"/>
<path fill="#FFFFFF" d="M187.7,42.6c0-4.6-0.1-9.4-0.4-14.2h7v10.8h0.2c0.7-1.4,1.5-2.9,2.4-4.3c0.9-1.4,2-2.7,3.4-3.9
	c1.5-1.3,3.2-2.3,5.4-3c2.2-0.7,4.7-1,7.7-1c7.2,0.1,12.4,2.3,15.5,6.7c3,4.2,4.5,9.8,4.5,16.6v38.7h-7.2V52c0-5.8-1-10.3-3.1-13.7
	c-2.2-3.2-5.8-4.9-10.8-5c-6.4,0.2-10.9,2.5-13.5,7.1c-1.3,2.2-2.3,4.5-2.9,7c-0.6,2.6-0.9,5.3-0.9,8v33.4h-7.2V42.6z"/>
<path fill="#FFFFFF" d="M278.7,34.8h-13.3V74c0,2.8,0.6,5.1,1.9,7c1.1,2,3.1,3,5.9,3c2.6,0,4.8-0.5,6.7-1.4l0.4,6.2
	c-0.9,0.3-2.1,0.7-3.6,1c-1.6,0.4-3.4,0.6-5.3,0.6c-3.1,0-5.6-0.6-7.4-1.7c-1.8-1.1-3.1-2.6-4-4.4c-0.8-1.9-1.3-4-1.5-6.4
	c-0.2-2.4-0.3-5-0.3-7.8V34.8h-11.5v-6.4h11.5V13.9l7.2-2.6v17.2h13.3V34.8z"/>
<path fill="#FFFFFF" d="M326.4,79.2h-0.2c-1.7,3.5-4.3,6.2-7.7,8.1c-3.4,1.9-7.1,2.9-10.9,3c-4.1-0.1-7.4-0.7-9.9-2
	c-2.6-1.2-4.6-2.7-6-4.5c-2.4-3.9-3.6-7.4-3.4-10.5c0-5,1.2-9,3.5-12c2.3-2.9,5.3-5,8.8-6.3c3.6-1.3,7.5-2.2,11.7-2.6
	c4.1-0.2,8.1-0.3,11.9-0.3h1.4V49c0.2-10.5-4.2-15.7-13.3-15.7c-6.1-0.1-11.8,1.6-17.2,5V31c5.4-2.6,11.1-4,17.2-4.1
	c13.9-0.2,20.7,7.4,20.5,22.5v26.7c-0.1,4.6,0.1,8.8,0.6,12.7h-7.1V79.2z M325.7,58.4h-2.1c-3.1,0-6.3,0.1-9.4,0.2
	c-3.3,0.3-6.3,1-9,2c-2.7,0.9-4.8,2.4-6.4,4.3c-1.8,2-2.6,4.7-2.6,8c0,3.9,1.2,6.6,3.7,8.3c2.3,1.7,5.1,2.6,8.5,2.6
	c4.2,0,7.5-0.9,10-2.6c2.4-1.7,4.1-3.6,5.2-5.9c1.1-2.5,1.8-4.9,1.9-7.2c0.2-2.5,0.3-4.5,0.3-6.1V58.4z"/>
<path fill="#FFFFFF" d="M390.1,36.4c-4.1-2-8.3-3-12.5-3.1c-7,0.1-12.4,2.4-16.1,7c-3.9,4.7-5.9,10.8-5.9,18.3
	c0,7,1.9,12.9,5.8,17.7c3.7,5,8.9,7.5,15.5,7.6c4.5,0,8.9-0.9,13.2-2.7l0.7,7c-4.7,1.5-9.7,2.2-15,2.1c-9.4-0.2-16.4-3.4-21-9.6
	c-4.7-6.1-7-13.5-7-22.1c0.1-9.6,2.7-17.2,8-22.9c5.2-5.8,12.2-8.7,20.9-8.8c3.6,0,6.6,0.3,9,0.8c1.2,0.2,2.3,0.5,3.2,0.7
	c0.9,0.3,1.5,0.6,2,0.8L390.1,36.4z"/>
<path fill="#FFFFFF" d="M429.8,34.8h-13.3V74c0,2.8,0.6,5.1,1.9,7c1.1,2,3.1,3,5.9,3c2.6,0,4.8-0.5,6.7-1.4l0.5,6.2
	c-0.9,0.3-2.1,0.7-3.6,1c-1.6,0.4-3.4,0.6-5.3,0.6c-3.1,0-5.6-0.6-7.4-1.7c-1.8-1.1-3.1-2.6-4-4.4c-0.8-1.9-1.3-4-1.5-6.4
	c-0.2-2.4-0.3-5-0.3-7.8V34.8h-11.5v-6.4h11.5V13.9l7.2-2.6v17.2h13.3V34.8z"/>
<path fill="#FFFFFF" d="M441.7,0h20.5v88.8h-20.5V0z"/>
<path fill="#FFFFFF" d="M529.1,75.3c0,5.2,0.2,9.7,0.7,13.5h-18.3c-0.4-2.8-0.6-5.6-0.7-8.4c-5.7,6.6-12.1,9.9-19.2,9.9
	c-5.3-0.1-9.6-1.9-12.9-5.5c-3.3-3.5-5-8.2-5.1-14.2c-0.1-14,10.4-21.1,31.7-21.1h5.5v-1.9c0-2.1-0.8-4.1-2.5-5.8
	c-1-0.9-2.2-1.6-3.6-2c-1.6-0.4-3.5-0.6-5.6-0.6c-3.4,0.1-6.6,0.7-9.7,1.8c-3.2,1.2-5.9,2.5-8.2,4l-0.8-15.2c2.6-1,5.8-2,9.6-2.8
	c3.8-0.8,8.2-1.2,13.3-1.2c5.4,0,9.8,0.6,13.2,1.7c3.4,1.2,5.9,2.8,7.7,5c1.9,2,3.1,4.5,3.8,7.2c0.6,2.8,0.9,5.8,0.9,9V75.3z
	 M510.9,59h-2.6c-5,0-8.9,0.8-11.8,2.3c-3,1.7-4.6,4.3-4.6,8c0.1,5.2,2.6,7.7,7.6,7.6c2.6,0,4.7-0.6,6.3-1.8c1.4-1,2.5-2.3,3.3-4
	c1.2-3.5,1.8-6.8,1.7-10V59z"/>
<path fill="#FFFFFF" d="M541.7,0h20.5v25.1c0,4.7-0.1,8.3-0.4,11h0.2c2.3-3.5,4.8-6.2,7.6-7.9c2.7-1.7,6.1-2.5,10.3-2.5
	c7.6,0.2,13.2,3.5,16.8,10c3.5,6.3,5.2,13.2,5.2,20.8c0,9.6-1.8,17.4-5.3,23.5c-3.7,6.3-9.7,9.6-17.8,9.7c-3.2,0-6.1-0.8-8.8-2.4
	c-2.7-1.6-5.2-4.4-7.4-8.5h-0.2c-0.1,3.3-0.3,6.6-0.6,9.9h-20.3c0.3-3.6,0.5-7.2,0.5-10.9V0z M579.6,57.4c0-5.3-0.6-9.5-1.8-12.7
	c-1.3-3-3.7-4.6-7-4.6c-2.7,0.1-4.8,1.6-6.3,4.6c-1.6,3.2-2.4,7.4-2.4,12.7c0,5.2,0.8,9.4,2.4,12.6c1.5,3.2,3.6,4.9,6.3,4.9
	c3.3,0,5.6-1.6,7-4.9C579,66.8,579.6,62.6,579.6,57.4z"/>
<g>
</g>
</svg>
